<mxfile host="app.diagrams.net" modified="2020-12-07T04:41:29.284Z" agent="5.0 (Windows NT 10.0; Win64; x64) AppleWebKit/537.36 (KHTML, like Gecko) Chrome/87.0.4280.88 Safari/537.36" etag="VVPHR699N7SCMvIIFmYc" version="13.10.6" type="github">
  <diagram id="kgpKYQtTHZ0yAKxKKP6v" name="Page-1">
    <mxGraphModel dx="1031" dy="621" grid="1" gridSize="10" guides="1" tooltips="1" connect="1" arrows="1" fold="1" page="1" pageScale="1" pageWidth="850" pageHeight="1100" math="0" shadow="0">
      <root>
        <mxCell id="0" />
        <mxCell id="1" parent="0" />
        <mxCell id="3nuBFxr9cyL0pnOWT2aG-1" value="스위치 Manager" style="shape=umlLifeline;perimeter=lifelinePerimeter;container=1;collapsible=0;recursiveResize=0;rounded=0;shadow=0;strokeWidth=1;" parent="1" vertex="1">
          <mxGeometry x="35" y="50" width="100" height="300" as="geometry" />
        </mxCell>
        <mxCell id="3nuBFxr9cyL0pnOWT2aG-5" value="SDN 스위치" style="shape=umlLifeline;perimeter=lifelinePerimeter;container=1;collapsible=0;recursiveResize=0;rounded=0;shadow=0;strokeWidth=1;" parent="1" vertex="1">
          <mxGeometry x="255" y="50" width="100" height="300" as="geometry" />
        </mxCell>
        <mxCell id="PDFexkBuj2RYUaJgiHv2-1" value="SDN 컨트롤러" style="shape=umlLifeline;perimeter=lifelinePerimeter;container=1;collapsible=0;recursiveResize=0;rounded=0;shadow=0;strokeWidth=1;" vertex="1" parent="1">
          <mxGeometry x="475" y="50" width="100" height="300" as="geometry" />
        </mxCell>
        <mxCell id="PDFexkBuj2RYUaJgiHv2-3" value="컨트롤러 Manager" style="shape=umlLifeline;perimeter=lifelinePerimeter;container=1;collapsible=0;recursiveResize=0;rounded=0;shadow=0;strokeWidth=1;" vertex="1" parent="1">
          <mxGeometry x="695" y="50" width="120" height="300" as="geometry" />
        </mxCell>
        <mxCell id="PDFexkBuj2RYUaJgiHv2-5" value="컨트롤러 ip 지정" style="endArrow=classic;html=1;entryX=0.482;entryY=0.234;entryDx=0;entryDy=0;entryPerimeter=0;shadow=0;sketch=0;" edge="1" parent="1" target="3nuBFxr9cyL0pnOWT2aG-5">
          <mxGeometry x="0.0114" y="11" width="50" height="50" relative="1" as="geometry">
            <mxPoint x="84" y="120" as="sourcePoint" />
            <mxPoint x="355" y="230" as="targetPoint" />
            <mxPoint as="offset" />
          </mxGeometry>
        </mxCell>
        <mxCell id="PDFexkBuj2RYUaJgiHv2-6" value="지정된 컨트롤러로 TCP Syn 전송" style="endArrow=classic;html=1;exitX=0.5;exitY=0.3;exitDx=0;exitDy=0;exitPerimeter=0;entryX=0.491;entryY=0.301;entryDx=0;entryDy=0;entryPerimeter=0;" edge="1" parent="1">
          <mxGeometry x="0.0114" y="11" width="50" height="50" relative="1" as="geometry">
            <mxPoint x="305" y="160" as="sourcePoint" />
            <mxPoint x="484.0999999999999" y="160.29999999999995" as="targetPoint" />
            <mxPoint as="offset" />
          </mxGeometry>
        </mxCell>
      </root>
    </mxGraphModel>
  </diagram>
</mxfile>
